<?xml version="1.0" encoding="UTF-8" standalone="no"?>
<!-- Created with Inkscape (http://www.inkscape.org/) -->

<svg
   xmlns:dc="http://purl.org/dc/elements/1.1/"
   xmlns:cc="http://creativecommons.org/ns#"
   xmlns:rdf="http://www.w3.org/1999/02/22-rdf-syntax-ns#"
   xmlns:svg="http://www.w3.org/2000/svg"
   xmlns="http://www.w3.org/2000/svg"
   xmlns:sodipodi="http://sodipodi.sourceforge.net/DTD/sodipodi-0.dtd"
   xmlns:inkscape="http://www.inkscape.org/namespaces/inkscape"
   version="1.1"
   id="svg10"
   width="7.5in"
   height="7.5in"
   viewBox="0 0 720 719.99998"
   sodipodi:docname="latttelarryslogo.svg"
   inkscape:version="0.92.4 (5da689c313, 2019-01-14)">
  <metadata
     id="metadata16">
    <rdf:RDF>
      <cc:Work
         rdf:about="">
        <dc:format>image/svg+xml</dc:format>
        <dc:type
           rdf:resource="http://purl.org/dc/dcmitype/StillImage" />
        <dc:title></dc:title>
      </cc:Work>
    </rdf:RDF>
  </metadata>
  <defs
     id="defs14">
    <filter
       style="color-interpolation-filters:sRGB"
       inkscape:label="Lightness-Contrast"
       id="filter30">
      <feColorMatrix
         values="7.875 0 0 0 -3.4375 0 7.875 0 0 -3.4375 0 0 7.875 0 -3.4375 0 0 0 1 0"
         id="feColorMatrix28"
         result="fbSourceGraphic" />
      <feColorMatrix
         result="fbSourceGraphicAlpha"
         in="fbSourceGraphic"
         values="0 0 0 -1 0 0 0 0 -1 0 0 0 0 -1 0 0 0 0 1 0"
         id="feColorMatrix32" />
      <feColorMatrix
         id="feColorMatrix34"
         values="7.875 0 0 0 -3.4375 0 7.875 0 0 -3.4375 0 0 7.875 0 -3.4375 0 0 0 1 0"
         in="fbSourceGraphic" />
    </filter>
  </defs>
  <sodipodi:namedview
     pagecolor="#ffffff"
     bordercolor="#666666"
     borderopacity="1"
     objecttolerance="10"
     gridtolerance="10"
     guidetolerance="10"
     inkscape:pageopacity="0"
     inkscape:pageshadow="2"
     inkscape:window-width="1831"
     inkscape:window-height="2114"
     id="namedview12"
     showgrid="false"
     inkscape:zoom="1.4142136"
     inkscape:cx="390.78892"
     inkscape:cy="547.39835"
     inkscape:window-x="-10"
     inkscape:window-y="0"
     inkscape:window-maximized="0"
     inkscape:current-layer="svg10"
     units="in" />
  <path
     style="fill:#000000"
     d="m 728.32233,724.98629 c -500,76.66667 -250,38.33333 0,0 z M 570.34543,462.34901 c -12.331,-2.27009 -18.6489,-4.93585 -23.7224,-10.00939 -5.3861,-5.38611 -8.0445,-11.36697 -9.4072,-21.16394 -0.5734,-4.1226 -1.1215,-25.35685 -1.218,-47.18722 -0.1449,-32.7793 0.069,-39.98622 1.2273,-41.38346 1.2983,-1.56581 6.8497,-1.67053 74.5,-1.4053 l 73.0972,0.28659 8.0453,2.72883 c 9.5963,3.25493 15.4246,7.85033 19.1934,15.13332 2.2659,4.37868 2.7168,6.68932 3.0515,15.63785 0.4702,12.56888 -1.4748,19.08803 -7.8591,26.34094 -5.9628,6.77406 -12.4338,9.52627 -24.9556,10.61393 -12.037,1.04556 -12.5834,1.44918 -13.4116,9.90696 -1.7518,17.88976 -3.4866,23.06083 -9.8816,29.45584 -4.8402,4.84021 -10.3909,7.33035 -22.0639,9.8983 -12.6242,2.7772 -53.8799,3.48761 -66.5953,1.14675 z m 12.6135,-21.44563 c 5.7127,-5.26788 5.8142,-6.05759 6.1751,-48.02379 0.2989,-34.75844 0.1682,-38.77051 -1.3113,-40.25 -2.2624,-2.26247 -26.5904,-2.44464 -28.4426,-0.21299 -0.8829,1.06386 -1.1064,11.24783 -0.8724,39.75 0.3032,36.92726 0.3939,38.49132 2.4966,43.04302 2.9892,6.47072 7.1915,9.00822 14.0757,8.49943 3.8065,-0.28133 5.9811,-1.05571 7.8789,-2.80567 z m 102.1089,-45.45523 c 4.7503,-1.9848 7.022,-4.08929 9.3609,-8.67202 2.2656,-4.43894 2.5457,-14.29349 0.5426,-19.08758 -3.7247,-8.91448 -18.4114,-14.93985 -23.649,-9.70226 -1.8365,1.83649 -2,3.33333 -2,18.30887 0,16.55658 0.4332,18.72242 4,19.99715 2.9264,1.04585 8.1145,0.67298 11.7455,-0.84416 z m -228.2328,65.79552 c -5.3818,-0.54854 -6.5127,-1.73707 -6.5127,-6.84464 0,-5.0811 1.6428,-6.41274 7.9112,-6.41274 3.1299,0 4.3874,-0.52601 5.5692,-2.3297 1.8603,-2.83926 1.3905,-4.56346 -6.9919,-25.6579 -7.0053,-17.62901 -8.0039,-24.54385 -4.3342,-30.0124 1.3335,-1.98727 4.509,-4.58052 7.3472,-6 4.6965,-2.34897 5.9349,-2.49829 20.4985,-2.47164 18.6137,0.034 20,0.51731 20,6.97164 0,4.6821 -1.6498,6.5 -5.8991,6.5 -1.1168,0 -2.4906,0.85969 -3.053,1.91043 -1.3686,2.5574 0.1312,6.61057 8.4875,22.9373 5.8921,11.51183 6.7927,14.00525 7.221,19.99208 0.8258,11.54085 -4.0631,18.0828 -15.5301,20.78137 -5.3757,1.26507 -25.0129,1.62496 -34.7136,0.6362 z M 17.674231,460.19951 c -1.1992,-0.18178 -2.4079,-1.29461 -2.7363,-2.51941 -1.069,-3.98645 -0.6843,-70.69695 0.4196,-72.75955 0.966,-1.80493 2.2674,-1.93426 19.4648,-1.93426 17.1974,0 18.4989,0.12933 19.4648,1.93426 0.6488,1.21224 1.0352,13.33669 1.0352,32.48095 v 30.54669 l 2.25,0.51165 c 1.2375,0.28141 4.95,0.62748 8.25,0.76905 l 6,0.2574 0.3141,4.38586 c 0.1728,2.41223 -0.1683,4.86838 -0.7581,5.45813 -0.9855,0.98553 -47.9247,1.74528 -53.7041,0.86923 z m 64.8369,0.0912 c -1.2711,-0.25274 -2.5201,-1.00406 -2.7755,-1.66962 -0.3965,-1.03327 21.489899,-60.95657 26.255199,-71.88477 l 1.6352,-3.75 h 10.313 c 8.8846,0 10.4456,0.24781 11.2705,1.78928 1.6711,3.12245 27.1128,71.46561 27.1128,72.83214 0,2.92068 -4.0887,3.50138 -22.4603,3.1899 l -18.3626,-0.31135 -2.1611,-2.75 c -2.0667,-2.62979 -2.5477,-2.75 -11.0052,-2.75 -8.213697,0 -8.974597,0.17423 -10.677397,2.44477 -1.931702,2.57583 -5.290002,3.62601 -9.144502,2.85962 z m 24.059899,-18.55442 c 0.2545,-0.6875 -0.075,-2.825 -0.7322,-4.75 -0.9224,-2.70169 -1.7448,-3.5 -3.6057,-3.5 -1.8715,0 -2.663,0.78031 -3.5381,3.4879 -0.62,1.91835 -0.9094,4.05585 -0.643,4.75 0.6313,1.64516 7.9107,1.6555 8.519,0.0121 z m 59.4285,18 c -1.5626,-1.14555 -1.683,-4.38358 -1.4411,-38.75 l 0.2639,-37.5 h 29.5 c 28.7021,0 29.6142,0.061 33.7222,2.25614 11.4648,6.12626 15.7791,13.73592 15.7294,27.74386 -0.034,9.62312 -1.7818,14.77795 -6.4378,18.98881 -4.6161,4.17485 -4.5362,4.9952 1.4206,14.57962 3.0611,4.92518 5.5656,9.6088 5.5656,10.40804 0,2.67617 -3.7869,3.52362 -15.6843,3.50988 -14.2237,-0.0164 -15.4819,-0.30491 -17.6987,-4.05761 -2.1659,-3.66652 -5.3421,-3.87221 -6.213,-0.40236 -0.3487,1.38951 -1.4527,2.96451 -2.4533,3.5 -2.7882,1.49221 -34.1874,1.25297 -36.2735,-0.27638 z m 45.844,-29.77344 c 1.4673,-1.62135 1.9204,-4.18914 2.2802,-12.92201 0.5146,-12.49 -0.2625,-19.37277 -2.4323,-21.5426 -1.9797,-1.97975 -5.9915,-1.93831 -6.7621,0.0698 -1.1921,3.1064 -0.6727,33.95256 0.593,35.21821 1.781,1.78097 4.256,1.45856 6.3212,-0.82344 z m 45.7288,29.99228 -2.25,-0.90439 v -37.56361 c 0,-34.83444 0.1272,-37.61582 1.75,-38.28222 0.9625,-0.39524 13.225,-0.71249 27.25,-0.70501 30.8798,0.0165 34.3427,0.75044 42.6674,9.04314 5.9951,5.97216 8.3326,12.14333 8.3326,21.99902 0,7.68779 -1.9929,13.5092 -6.5132,19.02563 -1.9177,2.34036 -3.4868,4.87327 -3.4868,5.6287 0,0.75543 2.25,5.02964 5,9.49824 5.2203,8.48268 6.0776,11.66416 3.4182,12.68467 -0.87,0.33385 -7.4468,0.60699 -14.6151,0.60699 h -13.0334 l -3.2058,-3.5 c -3.7954,-4.14358 -6.2795,-4.48138 -7.1599,-0.97362 -0.3487,1.38951 -1.4527,2.96451 -2.4533,3.5 -2.2767,1.21846 -32.648,1.16951 -35.7007,-0.0575 z m 44.4374,-28.7545 c 2.4226,-1.54043 3.3122,-6.67357 3.2979,-19.02944 -0.016,-13.91477 -0.9917,-17.46475 -4.9543,-18.02987 -4.3643,-0.6224 -5.031,1.84262 -5.031,18.60184 0,8.68577 0.4504,16.21613 1.0352,17.30887 1.0617,1.98385 3.545,2.48849 5.6522,1.1486 z m 59.1652,29.14741 c -2.4486,-0.69692 -2.8239,-3.35946 -2.8389,-20.13867 l -0.014,-15.27692 -8.0539,-19.07385 c -4.4297,-10.49062 -7.9148,-19.79627 -7.7448,-20.67924 0.4725,-2.45304 3.985,-2.98505 20.4237,-3.09339 21.5619,-0.1421 20.5956,-0.50808 24.4555,9.26183 5.4266,13.73524 7.214,13.89744 12.3358,1.11941 2.0956,-5.22819 3.9696,-8.3635 5.4357,-9.09446 2.8181,-1.40496 8.5399,-0.30567 8.9291,1.71548 0.1613,0.83733 -3.0985,9.72147 -7.2439,19.74253 l -7.5372,18.22011 -0.015,17.21771 c -0.01,9.46974 -0.4412,17.89271 -0.9618,18.71771 -0.7748,1.22796 -4.0818,1.52998 -18.2347,1.66531 -9.5085,0.0909 -18.0295,-0.0457 -18.9356,-0.30356 z m 56.8974,-47.92322 c -1.4389,-1.48081 -0.735,-6.64218 1.25,-9.16566 1.6354,-2.07908 2,-4.05678 2,-10.84871 0,-4.78582 0.4504,-8.58451 1.0628,-8.96296 1.5419,-0.95293 15.2125,-1.06012 16.6872,-0.13084 0.8527,0.5373 1.2488,3.7091 1.2463,9.97866 0,10.49123 -1.6208,14.41119 -7.1142,17.25196 -3.512,1.81613 -13.9351,3.1094 -15.1321,1.87755 z M 15.893731,360.41486 c -1.3892,-1.3892 -1.5696,-7.68035 -1.5561,-54.25 0.01,-28.97321 0.377,-53.24833 0.819,-53.94471 0.6238,-0.98273 7.0556,-1.20656 28.7347,-1 l 27.931,0.26614 0.26,46.23345 0.2599,46.23345 2.2401,0.51848 c 1.232,0.28516 6.74,0.6301 12.24,0.76654 l 9.999999,0.24808 0.2977,6.84001 c 0.1821,4.18188 -0.157,7.38796 -0.8724,8.25 -0.970197,1.16899 -7.802999,1.40999 -39.976299,1.40999 -33.945,0 -39.003,-0.19685 -40.3776,-1.57143 z m 92.678599,0.90915 c -0.6875,-0.27741 -1.2454,-1.47939 -1.2397,-2.67105 0.01,-1.19167 8.8931,-25.79167 19.75,-54.66667 l 19.7397,-52.5 15.1066,-0.27527 c 11.3316,-0.20649 15.3525,0.0434 16.0907,1 0.5413,0.7014 9.8648,25.10652 20.7188,54.23359 18.3312,49.19229 19.609,53.05018 17.9681,54.25 -1.3412,0.98069 -8.3217,1.29168 -28.9935,1.29168 -14.9749,0 -27.9557,-0.27958 -28.8462,-0.62129 -0.8904,-0.3417 -2.2595,-2.15417 -3.0423,-4.02769 l -1.4233,-3.40641 -14.2774,0.27769 -14.2774,0.2777 -1.4164,3 c -0.7791,1.65 -1.9095,3.33061 -2.5121,3.73469 -1.217,0.8161 -11.3839,0.89459 -13.3456,0.10303 z m 38.3395,-25.71022 c 0.2896,-0.75488 -0.7485,-4.69238 -2.307,-8.75 -2.1979,-5.72221 -3.2766,-7.3775 -4.8081,-7.3775 -1.5512,0 -2.4943,1.51605 -4.3996,7.07236 -3.2227,9.39835 -2.7366,10.42764 4.9252,10.42764 4.2163,0 6.2232,-0.418 6.5895,-1.3725 z m 86.6105,25.1725 c -0.8979,-0.89786 -1.2,-12.55556 -1.2,-46.3 0,-33.74444 -0.3021,-45.40214 -1.2,-46.3 -0.6648,-0.66482 -3.8982,-1.20683 -7.25,-1.21531 -3.3275,-0.008 -6.6347,-0.38621 -7.3493,-0.83952 -0.9124,-0.57872 -1.2102,-2.88243 -1,-7.73469 l 0.2993,-6.91048 h 45 45 v 7.5 7.5 l -6.9583,0.30044 c -3.8271,0.16524 -7.5396,0.78284 -8.25,1.37244 -1.0207,0.84711 -1.2917,10.54983 -1.2917,46.24956 0,33.80477 -0.3021,45.47964 -1.2,46.37756 -0.872,0.87203 -8.3333,1.2 -27.3,1.2 -18.9667,0 -26.428,-0.32797 -27.3,-1.2 z m 104.8,0.22169 c -1.286,-0.81248 -1.5713,-7.55112 -2,-47.23468 l -0.5,-46.28701 -7.5,-0.5 -7.5,-0.5 -0.2922,-7.76022 -0.2923,-7.76022 45.2923,0.26022 45.2922,0.26022 0.3,6.33731 c 0.39,8.23928 -0.4386,9.16269 -8.2224,9.16269 -3.4715,0 -6.7033,0.52567 -7.3776,1.2 -0.8979,0.89786 -1.2,12.55556 -1.2,46.3 0,33.74444 -0.3021,45.40214 -1.2,46.3 -1.4843,1.48431 -52.475,1.69059 -54.8,0.22169 z m 86,-10e-4 c -1.2952,-0.81953 -1.5257,-7.54254 -1.6885,-49.23469 -0.1037,-26.55705 0.045,-51.10312 0.3308,-54.54682 l 0.5193,-6.26128 40.1692,0.26128 40.1692,0.26127 v 7.5 7.5 l -10.4422,0.28711 c -5.7433,0.1579 -11.0308,0.7755 -11.75,1.37244 -1.8505,1.53575 -1.852,24.14387 0,25.67945 0.7183,0.59614 5.7808,1.21374 11.25,1.37245 l 9.9422,0.2881 v 7.5 7.5 l -9.944,0.28855 c -5.4692,0.15871 -10.5317,0.77631 -11.25,1.37245 -1.7767,1.47451 -1.8718,29.87318 -0.106,31.639 0.7892,0.78919 5,1.2 12.3,1.2 7.3,0 11.5108,0.41081 12.3,1.2 1.8094,1.80944 1.535,12.32213 -0.3714,14.22857 -1.3757,1.37564 -6.453,1.56952 -40.75,1.55612 -22.9702,-0.009 -39.7992,-0.40798 -40.6786,-0.96445 z m 169.2333,-41.02069 c -2.8257,-4.44324 -2.8723,-10.45263 -0.1748,-22.5 3.6661,-16.37311 4.952,-27.1717 3.8977,-32.73122 -0.5312,-2.80087 -0.7262,-5.33216 -0.4332,-5.62508 1.0374,-1.03739 4.6305,3.60304 5.3855,6.95534 0.9858,4.3763 -0.3591,16.81306 -3.0637,28.33332 -1.17,4.98371 -2.4105,13.56272 -2.7565,19.06447 l -0.6292,10.00317 z m 20.6894,-0.25 c -2.5279,-4.01162 -2.1316,-11.26412 1.5986,-29.25211 1.6691,-8.04915 2.4787,-15.19582 2.4787,-21.88062 0,-9.80042 0.025,-9.90456 1.9624,-8.15134 4.8737,4.4107 4.7977,9.01473 -0.5953,36.03407 -1.8676,9.35743 -2.4601,14.89134 -2.1144,19.75 0.2641,3.7125 0.084,6.75 -0.4009,6.75 -0.4847,0 -1.8028,-1.4625 -2.9291,-3.25 z m -42.366,0.0275 c -2.1848,-3.11927 -1.9532,-8.4851 1.1,-25.48518 1.638,-9.12001 2.6925,-18.72217 2.75,-25.04067 0.057,-6.32222 0.4764,-10.13408 1.0933,-9.95004 0.55,0.16409 2.0351,2.30085 3.3002,4.74837 2.6834,5.19141 2.6288,5.95657 -2.03,28.45003 -1.7186,8.29797 -3.1308,18.23931 -3.1607,22.25 -0.03,3.9875 -0.3784,7.25 -0.775,7.25 -0.3966,0 -1.4216,-1.00013 -2.2778,-2.22251 z M -21.677669,-43.013702 c 0,588.666662 0,294.333322 0,0 z"
     id="path36"
     inkscape:connector-curvature="0"
     sodipodi:nodetypes="ccsccscsccccsssssscsccscscccscscccsscccccssccccccccscsccsccccccccscscccscccccsccccccsccccsccccccscccccccscscscsccscccccccccscccccccsccccccccccccsccccccccsccccscccscccccscscsccccccccccscsccscccccccccscscsccsccccccccscscccsccccccccccccccccsccccccccccccccccscccsccccccccsccc" />
</svg>
